<?xml version="1.0" encoding="utf-8"?>
<!-- Generator: Adobe Illustrator 16.0.0, SVG Export Plug-In . SVG Version: 6.00 Build 0)  -->
<!DOCTYPE svg PUBLIC "-//W3C//DTD SVG 1.1//EN" "http://www.w3.org/Graphics/SVG/1.1/DTD/svg11.dtd">
<svg version="1.1" id="Layer_1" xmlns="http://www.w3.org/2000/svg" xmlns:xlink="http://www.w3.org/1999/xlink" x="0px" y="0px"
	 width="29.062px" height="31.062px" viewBox="0 0 29.062 31.062" enable-background="new 0 0 29.062 31.062" xml:space="preserve">
<path fill-rule="evenodd" clip-rule="evenodd" fill="#FFFFFF" d="M25.312,30.054h-22c-1.104,0-2-0.896-2-2v-22c0-1.105,0.896-2,2-2
	h2v1c0,1.657,1.343,3,3,3s3-1.343,3-3v-1h6v1c0,1.657,1.344,3,3,3s3-1.343,3-3v-1h2c1.104,0,2,0.895,2,2v22
	C27.312,29.158,26.417,30.054,25.312,30.054z M25.312,11.054h-22v17h22V11.054z M8.312,16.054h-3v-3h3V16.054z M8.312,21.054h-3v-3
	h3V21.054z M8.312,26.054h-3v-3h3V26.054z M13.312,16.054h-3v-3h3V16.054z M13.312,21.054h-3v-3h3V21.054z M13.312,26.054h-3v-3h3
	V26.054z M18.312,16.054h-3v-3h3V16.054z M18.312,21.054h-3v-3h3V21.054z M18.312,26.054h-3v-3h3V26.054z M23.312,16.054h-3v-3h3
	V16.054z M23.312,21.054h-3v-3h3V21.054z M23.312,26.054h-3v-3h3V26.054z M20.281,7.054c-1.088,0-1.969-0.882-1.969-1.969V3.022
	c0-1.087,0.881-1.969,1.969-1.969s1.969,0.881,1.969,1.969v2.062C22.25,6.172,21.369,7.054,20.281,7.054z M8.281,7.054
	c-1.087,0-1.969-0.882-1.969-1.969V3.022c0-1.087,0.881-1.969,1.969-1.969s1.969,0.881,1.969,1.969v2.062
	C10.25,6.172,9.369,7.054,8.281,7.054z"/>
</svg>
